<?xml version="1.0" encoding="UTF-8" standalone="no"?>
<!DOCTYPE svg PUBLIC "-//W3C//DTD SVG 1.1//EN"
 "http://www.w3.org/Graphics/SVG/1.1/DTD/svg11.dtd">
<!-- Generated by graphviz version 2.47.0 (20210316.0004)
 -->
<!-- Title: dependencies Pages: 1 -->
<svg width="2340pt" height="284pt"
 viewBox="0.00 0.00 2340.00 284.00" xmlns="http://www.w3.org/2000/svg" xmlns:xlink="http://www.w3.org/1999/xlink">
<g id="graph0" class="graph" transform="scale(1 1) rotate(0) translate(4 280)">
<title>dependencies</title>
<polygon fill="white" stroke="transparent" points="-4,4 -4,-280 2336,-280 2336,4 -4,4"/>
<text text-anchor="start" x="1145.01" y="-42.4" font-family="Times-12" font-weight="bold" font-size="14.00">Legend</text>
<polygon fill="#ffffb3" stroke="transparent" points="932,-10 932,-30 952,-30 952,-10 932,-10"/>
<text text-anchor="start" x="955.63" y="-15.4" font-family="Times-12" font-size="14.00"> &#160;Declarations</text>
<polygon fill="#8dd3c7" stroke="transparent" points="1045,-10 1045,-30 1065,-30 1065,-10 1045,-10"/>
<text text-anchor="start" x="1068.73" y="-15.4" font-family="Times-12" font-size="14.00"> &#160;Module</text>
<polygon fill="#80b1d3" stroke="transparent" points="1131,-10 1131,-30 1151,-30 1151,-10 1131,-10"/>
<text text-anchor="start" x="1154.78" y="-15.4" font-family="Times-12" font-size="14.00"> &#160;Bootstrap</text>
<polygon fill="#fdb462" stroke="transparent" points="1228,-10 1228,-30 1248,-30 1248,-10 1228,-10"/>
<text text-anchor="start" x="1251.67" y="-15.4" font-family="Times-12" font-size="14.00"> &#160;Providers</text>
<polygon fill="#fb8072" stroke="transparent" points="1324,-10 1324,-30 1344,-30 1344,-10 1324,-10"/>
<text text-anchor="start" x="1347.73" y="-15.4" font-family="Times-12" font-size="14.00"> &#160;Exports</text>
<g id="clust1" class="cluster">
<title>cluster_AppModule</title>
<polygon fill="none" stroke="black" stroke-dasharray="1,5" points="8,-70 8,-268 2324,-268 2324,-70 8,-70"/>
</g>
<g id="clust2" class="cluster">
<title>cluster_AppModule_declarations</title>
<polygon fill="none" stroke="black" points="396,-78 396,-130 2316,-130 2316,-78 396,-78"/>
</g>
<g id="clust15" class="cluster">
<title>cluster_AppModule_imports</title>
<polygon fill="none" stroke="black" points="244,-78 244,-130 388,-130 388,-78 244,-78"/>
</g>
<g id="clust17" class="cluster">
<title>cluster_AppModule_bootstrap</title>
<polygon fill="none" stroke="black" points="1149,-208 1149,-260 1273,-260 1273,-208 1149,-208"/>
</g>
<g id="clust18" class="cluster">
<title>cluster_AppModule_providers</title>
<polygon fill="none" stroke="black" points="16,-78 16,-130 236,-130 236,-78 16,-78"/>
</g>
<!-- AccountdetailsComponent -->
<g id="node1" class="node">
<title>AccountdetailsComponent</title>
<polygon fill="#ffffb3" stroke="black" points="2307.8,-122 2142.2,-122 2142.2,-86 2307.8,-86 2307.8,-122"/>
<text text-anchor="middle" x="2225" y="-99.8" font-family="Times,serif" font-size="14.00">AccountdetailsComponent</text>
</g>
<!-- AppModule -->
<g id="node13" class="node">
<title>AppModule</title>
<polygon fill="#8dd3c7" stroke="black" points="1252.66,-187 1249.66,-191 1228.66,-191 1225.66,-187 1169.34,-187 1169.34,-151 1252.66,-151 1252.66,-187"/>
<text text-anchor="middle" x="1211" y="-164.8" font-family="Times,serif" font-size="14.00">AppModule</text>
</g>
<!-- AccountdetailsComponent&#45;&gt;AppModule -->
<g id="edge1" class="edge">
<title>AccountdetailsComponent&#45;&gt;AppModule</title>
<path fill="none" stroke="black" d="M2225,-122.09C2225,-145.13 2225,-182 2225,-182 2225,-182 1262.96,-182 1262.96,-182"/>
<polygon fill="black" stroke="black" points="1262.96,-178.5 1252.96,-182 1262.96,-185.5 1262.96,-178.5"/>
</g>
<!-- AppComponent -->
<g id="node2" class="node">
<title>AppComponent</title>
<polygon fill="#ffffb3" stroke="black" points="2124.94,-122 2019.06,-122 2019.06,-86 2124.94,-86 2124.94,-122"/>
<text text-anchor="middle" x="2072" y="-99.8" font-family="Times,serif" font-size="14.00">AppComponent</text>
</g>
<!-- AppComponent&#45;&gt;AppModule -->
<g id="edge2" class="edge">
<title>AppComponent&#45;&gt;AppModule</title>
<path fill="none" stroke="black" d="M2072,-122.04C2072,-143.66 2072,-177 2072,-177 2072,-177 1262.82,-177 1262.82,-177"/>
<polygon fill="black" stroke="black" points="1262.82,-173.5 1252.82,-177 1262.82,-180.5 1262.82,-173.5"/>
</g>
<!-- CalldetailsComponent -->
<g id="node3" class="node">
<title>CalldetailsComponent</title>
<polygon fill="#ffffb3" stroke="black" points="2001.71,-122 1860.29,-122 1860.29,-86 2001.71,-86 2001.71,-122"/>
<text text-anchor="middle" x="1931" y="-99.8" font-family="Times,serif" font-size="14.00">CalldetailsComponent</text>
</g>
<!-- CalldetailsComponent&#45;&gt;AppModule -->
<g id="edge3" class="edge">
<title>CalldetailsComponent&#45;&gt;AppModule</title>
<path fill="none" stroke="black" d="M1931,-122.22C1931,-142.37 1931,-172 1931,-172 1931,-172 1262.82,-172 1262.82,-172"/>
<polygon fill="black" stroke="black" points="1262.82,-168.5 1252.82,-172 1262.82,-175.5 1262.82,-168.5"/>
</g>
<!-- HomepageComponent -->
<g id="node4" class="node">
<title>HomepageComponent</title>
<polygon fill="#ffffb3" stroke="black" points="1841.97,-122 1700.03,-122 1700.03,-86 1841.97,-86 1841.97,-122"/>
<text text-anchor="middle" x="1771" y="-99.8" font-family="Times,serif" font-size="14.00">HomepageComponent</text>
</g>
<!-- HomepageComponent&#45;&gt;AppModule -->
<g id="edge4" class="edge">
<title>HomepageComponent&#45;&gt;AppModule</title>
<path fill="none" stroke="black" d="M1771,-122.22C1771,-140.83 1771,-167 1771,-167 1771,-167 1263.09,-167 1263.09,-167"/>
<polygon fill="black" stroke="black" points="1263.09,-163.5 1253.09,-167 1263.09,-170.5 1263.09,-163.5"/>
</g>
<!-- LocationComponent -->
<g id="node5" class="node">
<title>LocationComponent</title>
<polygon fill="#ffffb3" stroke="black" points="1681.6,-122 1550.4,-122 1550.4,-86 1681.6,-86 1681.6,-122"/>
<text text-anchor="middle" x="1616" y="-99.8" font-family="Times,serif" font-size="14.00">LocationComponent</text>
</g>
<!-- LocationComponent&#45;&gt;AppModule -->
<g id="edge5" class="edge">
<title>LocationComponent&#45;&gt;AppModule</title>
<path fill="none" stroke="black" d="M1616,-122.03C1616,-139.06 1616,-162 1616,-162 1616,-162 1262.82,-162 1262.82,-162"/>
<polygon fill="black" stroke="black" points="1262.82,-158.5 1252.82,-162 1262.82,-165.5 1262.82,-158.5"/>
</g>
<!-- LoginpageComponent -->
<g id="node6" class="node">
<title>LoginpageComponent</title>
<polygon fill="#ffffb3" stroke="black" points="1532.7,-122 1391.3,-122 1391.3,-86 1532.7,-86 1532.7,-122"/>
<text text-anchor="middle" x="1462" y="-99.8" font-family="Times,serif" font-size="14.00">LoginpageComponent</text>
</g>
<!-- LoginpageComponent&#45;&gt;AppModule -->
<g id="edge6" class="edge">
<title>LoginpageComponent&#45;&gt;AppModule</title>
<path fill="none" stroke="black" d="M1462,-122.24C1462,-137.57 1462,-157 1462,-157 1462,-157 1262.73,-157 1262.73,-157"/>
<polygon fill="black" stroke="black" points="1262.73,-153.5 1252.73,-157 1262.73,-160.5 1262.73,-153.5"/>
</g>
<!-- MessagedialogComponent -->
<g id="node7" class="node">
<title>MessagedialogComponent</title>
<polygon fill="#ffffb3" stroke="black" points="1373.81,-122 1208.19,-122 1208.19,-86 1373.81,-86 1373.81,-122"/>
<text text-anchor="middle" x="1291" y="-99.8" font-family="Times,serif" font-size="14.00">MessagedialogComponent</text>
</g>
<!-- MessagedialogComponent&#45;&gt;AppModule -->
<g id="edge7" class="edge">
<title>MessagedialogComponent&#45;&gt;AppModule</title>
<path fill="none" stroke="black" d="M1230.59,-122.11C1230.59,-122.11 1230.59,-140.99 1230.59,-140.99"/>
<polygon fill="black" stroke="black" points="1227.09,-140.99 1230.59,-150.99 1234.09,-140.99 1227.09,-140.99"/>
</g>
<!-- SearchComponent -->
<g id="node8" class="node">
<title>SearchComponent</title>
<polygon fill="#ffffb3" stroke="black" points="1190.92,-122 1071.08,-122 1071.08,-86 1190.92,-86 1190.92,-122"/>
<text text-anchor="middle" x="1131" y="-99.8" font-family="Times,serif" font-size="14.00">SearchComponent</text>
</g>
<!-- SearchComponent&#45;&gt;AppModule -->
<g id="edge8" class="edge">
<title>SearchComponent&#45;&gt;AppModule</title>
<path fill="none" stroke="black" d="M1179.94,-122.11C1179.94,-122.11 1179.94,-140.99 1179.94,-140.99"/>
<polygon fill="black" stroke="black" points="1176.44,-140.99 1179.94,-150.99 1183.44,-140.99 1176.44,-140.99"/>
</g>
<!-- SmsdetailsComponent -->
<g id="node9" class="node">
<title>SmsdetailsComponent</title>
<polygon fill="#ffffb3" stroke="black" points="1053,-122 911,-122 911,-86 1053,-86 1053,-122"/>
<text text-anchor="middle" x="982" y="-99.8" font-family="Times,serif" font-size="14.00">SmsdetailsComponent</text>
</g>
<!-- SmsdetailsComponent&#45;&gt;AppModule -->
<g id="edge9" class="edge">
<title>SmsdetailsComponent&#45;&gt;AppModule</title>
<path fill="none" stroke="black" d="M982,-122.24C982,-137.57 982,-157 982,-157 982,-157 1159.26,-157 1159.26,-157"/>
<polygon fill="black" stroke="black" points="1159.26,-160.5 1169.26,-157 1159.26,-153.5 1159.26,-160.5"/>
</g>
<!-- UploadaccountComponent -->
<g id="node10" class="node">
<title>UploadaccountComponent</title>
<polygon fill="#ffffb3" stroke="black" points="893.08,-122 726.92,-122 726.92,-86 893.08,-86 893.08,-122"/>
<text text-anchor="middle" x="810" y="-99.8" font-family="Times,serif" font-size="14.00">UploadaccountComponent</text>
</g>
<!-- UploadaccountComponent&#45;&gt;AppModule -->
<g id="edge10" class="edge">
<title>UploadaccountComponent&#45;&gt;AppModule</title>
<path fill="none" stroke="black" d="M810,-122.03C810,-139.06 810,-162 810,-162 810,-162 1159.22,-162 1159.22,-162"/>
<polygon fill="black" stroke="black" points="1159.22,-165.5 1169.22,-162 1159.22,-158.5 1159.22,-165.5"/>
</g>
<!-- UploadcallComponent -->
<g id="node11" class="node">
<title>UploadcallComponent</title>
<polygon fill="#ffffb3" stroke="black" points="709.25,-122 566.75,-122 566.75,-86 709.25,-86 709.25,-122"/>
<text text-anchor="middle" x="638" y="-99.8" font-family="Times,serif" font-size="14.00">UploadcallComponent</text>
</g>
<!-- UploadcallComponent&#45;&gt;AppModule -->
<g id="edge11" class="edge">
<title>UploadcallComponent&#45;&gt;AppModule</title>
<path fill="none" stroke="black" d="M638,-122.22C638,-140.83 638,-167 638,-167 638,-167 1159.33,-167 1159.33,-167"/>
<polygon fill="black" stroke="black" points="1159.33,-170.5 1169.33,-167 1159.33,-163.5 1159.33,-170.5"/>
</g>
<!-- UploadsmsComponent -->
<g id="node12" class="node">
<title>UploadsmsComponent</title>
<polygon fill="#ffffb3" stroke="black" points="548.32,-122 403.68,-122 403.68,-86 548.32,-86 548.32,-122"/>
<text text-anchor="middle" x="476" y="-99.8" font-family="Times,serif" font-size="14.00">UploadsmsComponent</text>
</g>
<!-- UploadsmsComponent&#45;&gt;AppModule -->
<g id="edge12" class="edge">
<title>UploadsmsComponent&#45;&gt;AppModule</title>
<path fill="none" stroke="black" d="M476,-122.22C476,-142.37 476,-172 476,-172 476,-172 1159.11,-172 1159.11,-172"/>
<polygon fill="black" stroke="black" points="1159.11,-175.5 1169.11,-172 1159.11,-168.5 1159.11,-175.5"/>
</g>
<!-- AppComponent  -->
<g id="node15" class="node">
<title>AppComponent </title>
<polygon fill="#80b1d3" stroke="black" points="1265.44,-252 1156.56,-252 1156.56,-216 1265.44,-216 1265.44,-252"/>
<text text-anchor="middle" x="1211" y="-229.8" font-family="Times,serif" font-size="14.00">AppComponent </text>
</g>
<!-- AppModule&#45;&gt;AppComponent  -->
<g id="edge14" class="edge">
<title>AppModule&#45;&gt;AppComponent </title>
<path fill="none" stroke="black" stroke-dasharray="1,5" d="M1211,-187.11C1211,-187.11 1211,-205.99 1211,-205.99"/>
<polygon fill="black" stroke="black" points="1207.5,-205.99 1211,-215.99 1214.5,-205.99 1207.5,-205.99"/>
</g>
<!-- AppRoutingModule -->
<g id="node14" class="node">
<title>AppRoutingModule</title>
<polygon fill="#8dd3c7" stroke="black" points="380.27,-122 377.27,-126 356.27,-126 353.27,-122 251.73,-122 251.73,-86 380.27,-86 380.27,-122"/>
<text text-anchor="middle" x="316" y="-99.8" font-family="Times,serif" font-size="14.00">AppRoutingModule</text>
</g>
<!-- AppRoutingModule&#45;&gt;AppModule -->
<g id="edge13" class="edge">
<title>AppRoutingModule&#45;&gt;AppModule</title>
<path fill="none" stroke="black" d="M316,-122.04C316,-143.66 316,-177 316,-177 316,-177 1159.33,-177 1159.33,-177"/>
<polygon fill="black" stroke="black" points="1159.33,-180.5 1169.33,-177 1159.33,-173.5 1159.33,-180.5"/>
</g>
<!-- AuthInterceptorService -->
<g id="node16" class="node">
<title>AuthInterceptorService</title>
<ellipse fill="#fdb462" stroke="black" cx="126" cy="-104" rx="101.82" ry="18"/>
<text text-anchor="middle" x="126" y="-99.8" font-family="Times,serif" font-size="14.00">AuthInterceptorService</text>
</g>
<!-- AuthInterceptorService&#45;&gt;AppModule -->
<g id="edge15" class="edge">
<title>AuthInterceptorService&#45;&gt;AppModule</title>
<path fill="none" stroke="black" d="M126,-122.09C126,-145.13 126,-182 126,-182 126,-182 1159.13,-182 1159.13,-182"/>
<polygon fill="black" stroke="black" points="1159.13,-185.5 1169.13,-182 1159.13,-178.5 1159.13,-185.5"/>
</g>
</g>
</svg>
